<mxfile host="app.diagrams.net" modified="2023-08-28T08:28:02.553Z" agent="Mozilla/5.0 (Windows NT 10.0; Win64; x64) AppleWebKit/537.36 (KHTML, like Gecko) Chrome/116.0.0.0 Safari/537.36 Edg/116.0.1938.54" etag="9F22ALo2yvR2yoajQ3DK" version="21.6.9" type="github">
  <diagram name="第 1 页" id="Hl7dmh0yaYMi0r4JQ7Ox">
    <mxGraphModel dx="2016" dy="1167" grid="0" gridSize="10" guides="1" tooltips="1" connect="1" arrows="1" fold="1" page="0" pageScale="1" pageWidth="827" pageHeight="1169" background="none" math="0" shadow="0">
      <root>
        <mxCell id="0" />
        <mxCell id="1" parent="0" />
        <mxCell id="RNOW4N65Pk4G1KGDNjwt-1" value="Director" style="swimlane;fontStyle=1;align=center;verticalAlign=top;childLayout=stackLayout;horizontal=1;startSize=26;horizontalStack=0;resizeParent=1;resizeParentMax=0;resizeLast=0;collapsible=1;marginBottom=0;whiteSpace=wrap;html=1;fontSize=16;" vertex="1" parent="1">
          <mxGeometry x="-582" y="-310" width="160" height="86" as="geometry" />
        </mxCell>
        <mxCell id="RNOW4N65Pk4G1KGDNjwt-2" value="+ bulid: Bulid" style="text;strokeColor=none;fillColor=none;align=left;verticalAlign=top;spacingLeft=4;spacingRight=4;overflow=hidden;rotatable=0;points=[[0,0.5],[1,0.5]];portConstraint=eastwest;whiteSpace=wrap;html=1;fontSize=16;" vertex="1" parent="RNOW4N65Pk4G1KGDNjwt-1">
          <mxGeometry y="26" width="160" height="26" as="geometry" />
        </mxCell>
        <mxCell id="RNOW4N65Pk4G1KGDNjwt-3" value="" style="line;strokeWidth=1;fillColor=none;align=left;verticalAlign=middle;spacingTop=-1;spacingLeft=3;spacingRight=3;rotatable=0;labelPosition=right;points=[];portConstraint=eastwest;strokeColor=inherit;fontSize=16;" vertex="1" parent="RNOW4N65Pk4G1KGDNjwt-1">
          <mxGeometry y="52" width="160" height="8" as="geometry" />
        </mxCell>
        <mxCell id="RNOW4N65Pk4G1KGDNjwt-4" value="+construct()" style="text;strokeColor=none;fillColor=none;align=left;verticalAlign=top;spacingLeft=4;spacingRight=4;overflow=hidden;rotatable=0;points=[[0,0.5],[1,0.5]];portConstraint=eastwest;whiteSpace=wrap;html=1;fontSize=16;" vertex="1" parent="RNOW4N65Pk4G1KGDNjwt-1">
          <mxGeometry y="60" width="160" height="26" as="geometry" />
        </mxCell>
        <mxCell id="RNOW4N65Pk4G1KGDNjwt-5" value="Bulid" style="swimlane;fontStyle=1;align=center;verticalAlign=top;childLayout=stackLayout;horizontal=1;startSize=26;horizontalStack=0;resizeParent=1;resizeParentMax=0;resizeLast=0;collapsible=1;marginBottom=0;whiteSpace=wrap;html=1;fontSize=16;" vertex="1" parent="1">
          <mxGeometry x="-337" y="-310" width="160" height="155" as="geometry" />
        </mxCell>
        <mxCell id="RNOW4N65Pk4G1KGDNjwt-6" value="&amp;nbsp;" style="text;strokeColor=none;fillColor=none;align=left;verticalAlign=top;spacingLeft=4;spacingRight=4;overflow=hidden;rotatable=0;points=[[0,0.5],[1,0.5]];portConstraint=eastwest;whiteSpace=wrap;html=1;fontSize=16;" vertex="1" parent="RNOW4N65Pk4G1KGDNjwt-5">
          <mxGeometry y="26" width="160" height="26" as="geometry" />
        </mxCell>
        <mxCell id="RNOW4N65Pk4G1KGDNjwt-7" value="" style="line;strokeWidth=1;fillColor=none;align=left;verticalAlign=middle;spacingTop=-1;spacingLeft=3;spacingRight=3;rotatable=0;labelPosition=right;points=[];portConstraint=eastwest;strokeColor=inherit;fontSize=16;" vertex="1" parent="RNOW4N65Pk4G1KGDNjwt-5">
          <mxGeometry y="52" width="160" height="8" as="geometry" />
        </mxCell>
        <mxCell id="RNOW4N65Pk4G1KGDNjwt-8" value="+bulidPartA():&amp;nbsp;&lt;br&gt;+bulidPartB():&amp;nbsp;&lt;br&gt;+bulidPartC():&lt;br&gt;+getResult():&amp;nbsp;&amp;nbsp;" style="text;strokeColor=none;fillColor=none;align=left;verticalAlign=top;spacingLeft=4;spacingRight=4;overflow=hidden;rotatable=0;points=[[0,0.5],[1,0.5]];portConstraint=eastwest;whiteSpace=wrap;html=1;fontSize=16;" vertex="1" parent="RNOW4N65Pk4G1KGDNjwt-5">
          <mxGeometry y="60" width="160" height="95" as="geometry" />
        </mxCell>
        <mxCell id="RNOW4N65Pk4G1KGDNjwt-9" value="ConcreteBulid" style="swimlane;fontStyle=1;align=center;verticalAlign=top;childLayout=stackLayout;horizontal=1;startSize=26;horizontalStack=0;resizeParent=1;resizeParentMax=0;resizeLast=0;collapsible=1;marginBottom=0;whiteSpace=wrap;html=1;fontSize=16;" vertex="1" parent="1">
          <mxGeometry x="-330" y="-82" width="160" height="150" as="geometry" />
        </mxCell>
        <mxCell id="RNOW4N65Pk4G1KGDNjwt-10" value="&amp;nbsp;" style="text;strokeColor=none;fillColor=none;align=left;verticalAlign=top;spacingLeft=4;spacingRight=4;overflow=hidden;rotatable=0;points=[[0,0.5],[1,0.5]];portConstraint=eastwest;whiteSpace=wrap;html=1;fontSize=16;" vertex="1" parent="RNOW4N65Pk4G1KGDNjwt-9">
          <mxGeometry y="26" width="160" height="26" as="geometry" />
        </mxCell>
        <mxCell id="RNOW4N65Pk4G1KGDNjwt-11" value="" style="line;strokeWidth=1;fillColor=none;align=left;verticalAlign=middle;spacingTop=-1;spacingLeft=3;spacingRight=3;rotatable=0;labelPosition=right;points=[];portConstraint=eastwest;strokeColor=inherit;fontSize=16;" vertex="1" parent="RNOW4N65Pk4G1KGDNjwt-9">
          <mxGeometry y="52" width="160" height="8" as="geometry" />
        </mxCell>
        <mxCell id="RNOW4N65Pk4G1KGDNjwt-12" value="+bulidPartA():&amp;nbsp;&lt;br style=&quot;border-color: var(--border-color);&quot;&gt;+bulidPartB():&amp;nbsp;&lt;br style=&quot;border-color: var(--border-color);&quot;&gt;+bulidPartC():&lt;br style=&quot;border-color: var(--border-color);&quot;&gt;+getResult():&amp;nbsp;&amp;nbsp;" style="text;strokeColor=none;fillColor=none;align=left;verticalAlign=top;spacingLeft=4;spacingRight=4;overflow=hidden;rotatable=0;points=[[0,0.5],[1,0.5]];portConstraint=eastwest;whiteSpace=wrap;html=1;fontSize=16;" vertex="1" parent="RNOW4N65Pk4G1KGDNjwt-9">
          <mxGeometry y="60" width="160" height="90" as="geometry" />
        </mxCell>
        <mxCell id="RNOW4N65Pk4G1KGDNjwt-13" value="Product" style="swimlane;fontStyle=1;align=center;verticalAlign=top;childLayout=stackLayout;horizontal=1;startSize=26;horizontalStack=0;resizeParent=1;resizeParentMax=0;resizeLast=0;collapsible=1;marginBottom=0;whiteSpace=wrap;html=1;fontSize=16;" vertex="1" parent="1">
          <mxGeometry x="-11" y="-18" width="160" height="86" as="geometry" />
        </mxCell>
        <mxCell id="RNOW4N65Pk4G1KGDNjwt-14" value="+ field: type" style="text;strokeColor=none;fillColor=none;align=left;verticalAlign=top;spacingLeft=4;spacingRight=4;overflow=hidden;rotatable=0;points=[[0,0.5],[1,0.5]];portConstraint=eastwest;whiteSpace=wrap;html=1;fontSize=16;" vertex="1" parent="RNOW4N65Pk4G1KGDNjwt-13">
          <mxGeometry y="26" width="160" height="26" as="geometry" />
        </mxCell>
        <mxCell id="RNOW4N65Pk4G1KGDNjwt-15" value="" style="line;strokeWidth=1;fillColor=none;align=left;verticalAlign=middle;spacingTop=-1;spacingLeft=3;spacingRight=3;rotatable=0;labelPosition=right;points=[];portConstraint=eastwest;strokeColor=inherit;fontSize=16;" vertex="1" parent="RNOW4N65Pk4G1KGDNjwt-13">
          <mxGeometry y="52" width="160" height="8" as="geometry" />
        </mxCell>
        <mxCell id="RNOW4N65Pk4G1KGDNjwt-16" value="+ method(type): type" style="text;strokeColor=none;fillColor=none;align=left;verticalAlign=top;spacingLeft=4;spacingRight=4;overflow=hidden;rotatable=0;points=[[0,0.5],[1,0.5]];portConstraint=eastwest;whiteSpace=wrap;html=1;fontSize=16;" vertex="1" parent="RNOW4N65Pk4G1KGDNjwt-13">
          <mxGeometry y="60" width="160" height="26" as="geometry" />
        </mxCell>
        <mxCell id="RNOW4N65Pk4G1KGDNjwt-18" value="" style="endArrow=none;dashed=1;html=1;dashPattern=1 3;strokeWidth=2;rounded=0;fontSize=12;startSize=8;endSize=8;curved=1;entryX=0;entryY=0.5;entryDx=0;entryDy=0;exitX=0.508;exitY=0;exitDx=0;exitDy=0;exitPerimeter=0;" edge="1" parent="1" source="RNOW4N65Pk4G1KGDNjwt-19" target="RNOW4N65Pk4G1KGDNjwt-4">
          <mxGeometry width="50" height="50" relative="1" as="geometry">
            <mxPoint x="-619" y="-147" as="sourcePoint" />
            <mxPoint x="-303" y="-197" as="targetPoint" />
          </mxGeometry>
        </mxCell>
        <mxCell id="RNOW4N65Pk4G1KGDNjwt-19" value="bulid.bulidPartA()&lt;br&gt;bulid.bulidPartB()&lt;br&gt;bulid.bulidPartC()&lt;br&gt;return bulid.getResult()" style="rounded=0;whiteSpace=wrap;html=1;fontSize=16;" vertex="1" parent="1">
          <mxGeometry x="-718" y="-159" width="179" height="108" as="geometry" />
        </mxCell>
        <mxCell id="RNOW4N65Pk4G1KGDNjwt-20" value="1" style="endArrow=open;html=1;endSize=12;startArrow=diamondThin;startSize=14;startFill=0;edgeStyle=orthogonalEdgeStyle;align=left;verticalAlign=bottom;rounded=0;fontSize=12;curved=1;exitX=1;exitY=0.5;exitDx=0;exitDy=0;entryX=0;entryY=0.5;entryDx=0;entryDy=0;" edge="1" parent="1" source="RNOW4N65Pk4G1KGDNjwt-2" target="RNOW4N65Pk4G1KGDNjwt-8">
          <mxGeometry x="-1" y="3" relative="1" as="geometry">
            <mxPoint x="-408" y="-172" as="sourcePoint" />
            <mxPoint x="-248" y="-172" as="targetPoint" />
          </mxGeometry>
        </mxCell>
        <mxCell id="RNOW4N65Pk4G1KGDNjwt-21" value="" style="endArrow=block;dashed=1;endFill=0;endSize=12;html=1;rounded=0;fontSize=12;curved=1;" edge="1" parent="1">
          <mxGeometry width="160" relative="1" as="geometry">
            <mxPoint x="-254" y="-85" as="sourcePoint" />
            <mxPoint x="-254" y="-153" as="targetPoint" />
          </mxGeometry>
        </mxCell>
        <mxCell id="RNOW4N65Pk4G1KGDNjwt-26" value="Use" style="endArrow=open;endSize=12;dashed=1;html=1;rounded=0;fontSize=12;curved=1;entryX=0;entryY=0.5;entryDx=0;entryDy=0;exitX=1;exitY=0.5;exitDx=0;exitDy=0;" edge="1" parent="1" source="RNOW4N65Pk4G1KGDNjwt-12" target="RNOW4N65Pk4G1KGDNjwt-14">
          <mxGeometry width="160" relative="1" as="geometry">
            <mxPoint x="-328" y="-136" as="sourcePoint" />
            <mxPoint x="-168" y="-136" as="targetPoint" />
          </mxGeometry>
        </mxCell>
      </root>
    </mxGraphModel>
  </diagram>
</mxfile>
